<svg width="64" height="30" viewBox="0 0 64 30" fill="none" xmlns="http://www.w3.org/2000/svg">
<rect y="3" width="64" height="30" rx="15" fill="url(#paint0_linear_19_767)"/>
<g filter="url(#filter0_ddd_19_767)">
<rect x="36" y="5" width="26" height="26" rx="13" fill="white"/>
</g>
<path d="M48.9824 13.1836C48.5723 13.1836 48.2305 12.8418 48.2305 12.4316V11.0439C48.2305 10.6406 48.5723 10.292 48.9824 10.292C49.3926 10.292 49.7344 10.6406 49.7344 11.0439V12.4316C49.7344 12.8418 49.3926 13.1836 48.9824 13.1836ZM52.4346 14.6328C52.1475 14.3389 52.1406 13.8535 52.4277 13.5732L53.4121 12.582C53.6992 12.2949 54.1846 12.2949 54.4717 12.5752C54.7588 12.8623 54.7588 13.3545 54.4785 13.6416L53.4941 14.626C53.2002 14.9131 52.7217 14.9131 52.4346 14.6328ZM45.5303 14.6328C45.2432 14.9131 44.7578 14.9131 44.4707 14.626L43.4863 13.6348C43.2129 13.3545 43.2129 12.8623 43.5 12.5752C43.7871 12.2949 44.2793 12.3018 44.5596 12.582L45.5439 13.5732C45.8174 13.8535 45.8174 14.3457 45.5303 14.6328ZM48.9824 21.7354C46.9727 21.7354 45.3115 20.0742 45.3115 18.0645C45.3115 16.0479 46.9727 14.3867 48.9824 14.3867C50.9922 14.3867 52.6533 16.0479 52.6533 18.0645C52.6533 20.0742 50.9922 21.7354 48.9824 21.7354ZM48.9824 20.2998C50.1992 20.2998 51.2178 19.2812 51.2178 18.0645C51.2178 16.8408 50.1992 15.8291 48.9824 15.8291C47.7588 15.8291 46.7471 16.8408 46.7471 18.0645C46.7471 19.2812 47.7588 20.2998 48.9824 20.2998ZM53.8633 18.0645C53.8633 17.6543 54.2051 17.3125 54.6152 17.3125H55.9961C56.3994 17.3125 56.748 17.6543 56.748 18.0645C56.748 18.4746 56.3994 18.8164 55.9961 18.8164H54.6152C54.2051 18.8164 53.8633 18.4746 53.8633 18.0645ZM44.1084 18.0645C44.1084 18.4746 43.7598 18.8164 43.3564 18.8164H41.9756C41.5654 18.8164 41.2236 18.4746 41.2236 18.0645C41.2236 17.6543 41.5654 17.3125 41.9756 17.3125H43.3564C43.7598 17.3125 44.1084 17.6543 44.1084 18.0645ZM52.4277 21.5098C52.7148 21.2227 53.2002 21.2227 53.4873 21.5029L54.4785 22.4873C54.7656 22.7744 54.7656 23.2598 54.4854 23.54C54.1914 23.8271 53.7061 23.8408 53.4258 23.5537L52.4346 22.5693C52.1475 22.2754 52.1406 21.7969 52.4277 21.5098ZM45.5439 21.5098C45.8174 21.7969 45.8174 22.2754 45.5303 22.5693L44.5459 23.5469C44.2588 23.834 43.7666 23.8271 43.4795 23.54C43.1992 23.2529 43.2061 22.7676 43.4932 22.4805L44.4775 21.5029C44.7578 21.2227 45.25 21.2227 45.5439 21.5098ZM48.9824 22.9453C49.3926 22.9453 49.7344 23.2871 49.7344 23.6973V25.0781C49.7344 25.4883 49.3926 25.8301 48.9824 25.8301C48.5723 25.8301 48.2305 25.4883 48.2305 25.0781V23.6973C48.2305 23.2871 48.5723 22.9453 48.9824 22.9453Z" fill="url(#paint1_linear_19_767)"/>
<path d="M18.915 20.1494C19.6807 20.1494 20.4668 20.0127 20.9727 19.8008C21.1982 19.6982 21.3555 19.6709 21.5195 19.6709C21.8408 19.6709 22.1211 19.9102 22.1211 20.293C22.1211 20.4229 22.0869 20.6211 21.9844 20.8535C20.8564 23.4375 18.3887 25.0371 15.4287 25.0371C11.2588 25.0371 8.22363 21.9951 8.22363 17.8252C8.22363 14.9268 10.0078 12.2471 12.6055 11.1943C12.8311 11.1055 13.0088 11.0713 13.1113 11.0713C13.5078 11.0713 13.7676 11.3926 13.7676 11.7207C13.7676 11.9053 13.7266 12.0693 13.6035 12.3086C13.3506 12.7871 13.1934 13.6621 13.1934 14.6191C13.1934 18.0371 15.3877 20.1494 18.915 20.1494ZM9.7207 17.791C9.7207 21.1133 12.1475 23.54 15.4629 23.54C17.3086 23.54 19.0312 22.7129 19.9951 21.3115C19.585 21.4551 19.1475 21.5098 18.6416 21.5098C14.3828 21.5098 11.8057 18.9873 11.8057 14.8242C11.8057 14.2227 11.8945 13.6758 12.0518 13.1768C10.6025 14.2158 9.7207 15.9863 9.7207 17.791Z" fill="#FFC634"/>
<defs>
<filter id="filter0_ddd_19_767" x="28" y="0" width="42" height="42" filterUnits="userSpaceOnUse" color-interpolation-filters="sRGB">
<feFlood flood-opacity="0" result="BackgroundImageFix"/>
<feColorMatrix in="SourceAlpha" type="matrix" values="0 0 0 0 0 0 0 0 0 0 0 0 0 0 0 0 0 0 127 0" result="hardAlpha"/>
<feOffset dy="3"/>
<feGaussianBlur stdDeviation="0.5"/>
<feColorMatrix type="matrix" values="0 0 0 0 0 0 0 0 0 0 0 0 0 0 0 0 0 0 0.03 0"/>
<feBlend mode="normal" in2="BackgroundImageFix" result="effect1_dropShadow_19_767"/>
<feColorMatrix in="SourceAlpha" type="matrix" values="0 0 0 0 0 0 0 0 0 0 0 0 0 0 0 0 0 0 127 0" result="hardAlpha"/>
<feOffset dy="1"/>
<feGaussianBlur stdDeviation="0.5"/>
<feColorMatrix type="matrix" values="0 0 0 0 0 0 0 0 0 0 0 0 0 0 0 0 0 0 0.01 0"/>
<feBlend mode="normal" in2="effect1_dropShadow_19_767" result="effect2_dropShadow_19_767"/>
<feColorMatrix in="SourceAlpha" type="matrix" values="0 0 0 0 0 0 0 0 0 0 0 0 0 0 0 0 0 0 127 0" result="hardAlpha"/>
<feOffset dy="3"/>
<feGaussianBlur stdDeviation="4"/>
<feColorMatrix type="matrix" values="0 0 0 0 0 0 0 0 0 0 0 0 0 0 0 0 0 0 0.1 0"/>
<feBlend mode="normal" in2="effect2_dropShadow_19_767" result="effect3_dropShadow_19_767"/>
<feBlend mode="normal" in="SourceGraphic" in2="effect3_dropShadow_19_767" result="shape"/>
</filter>
<linearGradient id="paint0_linear_19_767" x1="-2" y1="20.5" x2="64" y2="20.5" gradientUnits="userSpaceOnUse">
<stop stop-color="#FFB800"/>
<stop offset="1" stop-color="#FF00B8"/>
</linearGradient>
<linearGradient id="paint1_linear_19_767" x1="38.5" y1="19" x2="59.5" y2="19" gradientUnits="userSpaceOnUse">
<stop stop-color="#FF00B8"/>
<stop offset="1" stop-color="#FFB800"/>
</linearGradient>
</defs>
</svg>
